<svg xmlns="http://www.w3.org/2000/svg" width="96" height="107" viewBox="0 0 96 107">
  <g fill="none" fill-rule="evenodd">
    <polygon fill="#C61716" fill-rule="nonzero" points="95.769 106.363 14 106.363 14 0 70.216 0 95.769 25.324"/>
    <polygon fill="#FF7F7F" fill-rule="nonzero" points="92.275 28.058 68 28.058 68 4"/>
    <rect width="55" height="28" y="16" fill="#9F1312" rx="4"/>
    <text fill="#FF7F7F" font-family="Roboto-Bold, Roboto" font-size="18" font-weight="bold" letter-spacing="-.432">
      <tspan x="11" y="36">PDF</tspan>
    </text>
    <path fill="#FF7F7F" d="M52.7101984,71.1855524 C53.3362638,72.5849928 54.054387,73.8555184 54.8645893,74.9971671 C55.6747917,76.1388159 56.5586355,77.1147268 57.5161474,77.9249292 L58.7866856,78.9192635 C57.4240726,79.1770551 55.8313123,79.5361167 54.008357,79.9964589 C52.1854017,80.4568012 50.2796134,81.0736505 48.2909349,81.8470255 L47.9594902,81.9575071 L49.5062324,78.6983003 C50.2059526,77.3356872 50.8228019,76.0283349 51.3567989,74.776204 C51.8907959,73.5240731 52.3419246,72.3272012 52.7101984,71.1855524 Z M73.0388103,83.1175637 C73.3334293,82.8597721 73.5543903,82.5559508 73.7016998,82.2060907 C73.8490093,81.8562305 73.922663,81.4787556 73.922663,81.0736544 C73.9963177,80.742208 73.9963177,80.4291799 73.922663,80.1345609 C73.8490082,79.8399419 73.7201143,79.5821541 73.5359774,79.3611898 C73.0940489,78.6246422 72.2838587,78.0722398 71.1053825,77.703966 C69.9269064,77.3356922 68.3617662,77.1515581 66.4099151,77.1515581 L62.3220964,77.3725212 L59.6152975,75.5495751 C58.6209583,74.7393727 57.6910809,73.6437746 56.8256375,72.2627479 C55.960194,70.8817211 55.2144508,69.3073743 54.5883853,67.5396601 L54.6988669,67.0977337 C55.2144502,64.9985731 55.5919252,62.8442037 55.8313032,60.6345609 C56.0706812,58.4249181 55.6747928,56.8045377 54.6436261,55.7733711 C54.3858345,55.5155794 54.0912199,55.3222386 53.7597734,55.1933428 C53.428327,55.0644469 53.0784722,55 52.7101984,55 L51.9920681,55 C51.40283,55 50.868841,55.2577878 50.3900851,55.7733711 C49.9113291,56.2889544 49.6167145,56.8413568 49.5062324,57.4305949 C48.9169943,59.5297555 48.7328602,61.2882365 48.9538244,62.7060907 C49.1747887,64.1239448 49.5798838,65.7903587 50.1691219,67.7053824 L50.1691219,67.7606232 C49.8008481,69.1232363 49.3405127,70.5871027 48.7881021,72.1522663 C48.2356914,73.7174299 47.5728085,75.3101902 46.7994335,76.9305949 L43.7611899,82.6203966 L40.9439094,84.1671388 C39.0657131,85.345615 37.6570869,86.5424868 36.7179887,87.7577904 C35.7788906,88.9730939 35.2356949,89.9858316 35.0883853,90.796034 C35.0147306,91.090653 34.9871105,91.3760609 35.0055242,91.6522663 C35.0239378,91.9284716 35.0883848,92.2138795 35.1988669,92.5084986 L35.3093485,92.674221 L36.8008499,93.6133144 L38.1818698,94 C39.470828,94 40.8610408,93.2266366 42.3525496,91.6798867 C43.8440585,90.1331367 45.5657127,87.6841527 47.5175638,84.3328612 L48.1252125,84.111898 C49.7456172,83.5963147 51.5869586,83.1543928 53.6492919,82.786119 C55.7116251,82.4178452 58.0869555,82.0679903 60.7753542,81.7365439 C62.3957589,82.5467463 64.0713795,83.1451822 65.8022664,83.5318697 C67.5331532,83.9185572 69.0062263,84.111898 70.2215298,84.111898 C70.8844226,84.111898 71.4552385,84.0290377 71.9339944,83.8633144 C72.4127503,83.6975912 72.7810186,83.4490102 73.0388103,83.1175637 Z M71.768272,80.907932 L72.044476,81.2393768 C72.044476,81.4235137 72.0168559,81.5339942 71.9616148,81.5708215 C71.9063737,81.6076489 71.8419268,81.6444757 71.768272,81.6813031 L71.6577904,81.6813031 L71.0501417,81.7365439 C70.3135941,81.7365439 69.4205436,81.5892366 68.3709632,81.2946176 C67.3213829,80.9999985 66.2257848,80.6133168 65.084136,80.1345609 C65.2314456,79.9872514 65.3511328,79.8951843 65.4432012,79.8583569 C65.5352697,79.8215296 65.6549568,79.8031161 65.8022664,79.8031161 C68.0119091,79.8031161 69.5218091,79.9504235 70.3320114,80.2450425 C71.1422138,80.5396615 71.6209625,80.7606225 71.768272,80.907932 Z M42.932578,85.4929178 C41.9382387,87.3711142 40.9807412,88.8257739 40.0600567,89.8569405 C39.1393722,90.8881071 38.329182,91.5325766 37.6294618,91.7903683 C37.7031166,91.2011302 38.0805916,90.4185601 38.7618981,89.4426346 C39.4432046,88.466709 40.3362552,87.4815914 41.4410766,86.4872521 L42.932578,85.4929178 Z M52.4339944,63.7832861 C52.0657206,62.3838457 51.8723798,61.1225269 51.8539661,59.9992918 C51.8355524,58.8760567 51.9552396,57.9830061 52.2130312,57.3201133 L52.4339944,56.9886686 L52.9311615,57.0991501 C53.1889532,57.5042513 53.3362605,57.9737934 53.3730879,58.5077904 C53.4099153,59.0417874 53.354675,59.7322904 53.2073655,60.5793201 L53.0968839,61.0764873 L52.5997168,63.6728045 L52.4339944,63.7832861 Z"/>
  </g>
</svg>
