<svg xmlns="http://www.w3.org/2000/svg" width="96" height="107" viewBox="0 0 96 107">
  <g fill="none" fill-rule="evenodd">
    <polygon fill="#CBA610" fill-rule="nonzero" points="95.769 106.363 14 106.363 14 0 70.216 0 95.769 25.324"/>
    <polygon fill="#F3CE38" fill-rule="nonzero" points="92.275 28.058 68 28.058 68 4"/>
    <rect width="55" height="28" y="16" fill="#AF8F0E" rx="4"/>
    <text fill="#F3CE38" font-family="Roboto-Bold, Roboto" font-size="18" font-weight="bold" letter-spacing="-.432">
      <tspan x="9" y="37">PNG</tspan>
    </text>
    <path fill="#F3CE38" d="M48.0039062,76.9882812 L40.9726562,85.9882812 L68.9921875,85.9882812 L59.9921875,74 L52.9960938,83 L48.0039062,76.9882812 Z M73,87.9921875 C73,89.0937555 72.6074258,90.0371054 71.8222656,90.8222656 C71.0371054,91.6074258 70.0937555,92 68.9921875,92 L40.9726562,92 C39.8945259,92 38.9628946,91.6074258 38.1777344,90.8222656 C37.3925742,90.0371054 37,89.0937555 37,87.9921875 L37,59.9726562 C37,58.8945259 37.3925742,57.9628946 38.1777344,57.1777344 C38.9628946,56.3925742 39.8945259,56 40.9726562,56 L68.9921875,56 C70.0937555,56 71.0371054,56.3867149 71.8222656,57.1601562 C72.6074258,57.9335976 73,58.8710882 73,59.9726562 L73,87.9921875 Z"/>
  </g>
</svg>
