<svg xmlns="http://www.w3.org/2000/svg" width="96" height="107" viewBox="0 0 96 107">
  <g fill="none" fill-rule="evenodd">
    <polygon fill="#1C5DA4" fill-rule="nonzero" points="95.769 106.363 14 106.363 14 0 70.216 0 95.769 25.324"/>
    <polygon fill="#7BB6F6" fill-rule="nonzero" points="92.06 27.566 67.785 27.566 67.785 3.508"/>
    <rect width="55" height="28" y="16" fill="#2C7ACD" rx="4"/>
    <path fill="#7BB6F6" d="M10.1425781,37 L10.1425781,24.203125 L14.0800781,24.203125 C15.2050838,24.203125 16.2114213,24.4565404 17.0991211,24.9633789 C17.9868208,25.4702174 18.679685,26.1909133 19.1777344,27.1254883 C19.6757837,28.0600633 19.9248047,29.1220644 19.9248047,30.3115234 L19.9248047,30.9003906 C19.9248047,32.0898497 19.6801782,33.1474563 19.190918,34.0732422 C18.7016577,34.9990281 18.0117232,35.7167943 17.1210938,36.2265625 C16.2304643,36.7363307 15.2255915,36.9941406 14.1064453,37 L10.1425781,37 Z M12.7792969,26.3388672 L12.7792969,34.8818359 L14.0537109,34.8818359 C15.0849661,34.8818359 15.8730442,34.5449252 16.4179688,33.8710938 C16.9628933,33.1972623 17.2412109,32.2334047 17.2529297,30.9794922 L17.2529297,30.3027344 C17.2529297,29.0019466 16.9834011,28.0161166 16.4443359,27.3452148 C15.9052707,26.6743131 15.1171927,26.3388672 14.0800781,26.3388672 L12.7792969,26.3388672 Z M31.9205391,30.8916016 C31.9205391,32.1513735 31.697885,33.2558546 31.2525703,34.2050781 C30.8072556,35.1543016 30.1700549,35.8867162 29.3409492,36.4023438 C28.5118435,36.9179713 27.5611694,37.1757812 26.4888984,37.1757812 C25.4283462,37.1757812 24.4820666,36.920901 23.6500312,36.4111328 C22.8179958,35.9013646 22.173471,35.1733446 21.7164375,34.2270508 C21.259404,33.280757 21.027961,32.192389 21.0221016,30.9619141 L21.0221016,30.3291016 C21.0221016,29.0693296 21.2491501,27.960454 21.7032539,27.0024414 C22.1573577,26.0444288 22.7989529,25.3090846 23.6280586,24.7963867 C24.4571643,24.2836888 25.4049087,24.0273438 26.4713203,24.0273438 C27.5377319,24.0273438 28.4854763,24.2836888 29.314582,24.7963867 C30.1436877,25.3090846 30.7852829,26.0444288 31.2393867,27.0024414 C31.6934905,27.960454 31.9205391,29.0664 31.9205391,30.3203125 L31.9205391,30.8916016 Z M29.2486641,30.3115234 C29.2486641,28.9697199 29.0084321,27.9501988 28.5279609,27.2529297 C28.0474898,26.5556606 27.3619498,26.2070312 26.4713203,26.2070312 C25.5865503,26.2070312 24.9039399,26.5512661 24.4234687,27.2397461 C23.9429976,27.9282261 23.699836,28.9374933 23.6939766,30.2675781 L23.6939766,30.8916016 C23.6939766,32.1982487 23.9342085,33.2119105 24.4146797,33.9326172 C24.8951508,34.6533239 25.5865502,35.0136719 26.4888984,35.0136719 C27.3736685,35.0136719 28.0533492,34.6665074 28.5279609,33.972168 C29.0025727,33.2778286 29.2428046,32.2656317 29.2486641,30.9355469 L29.2486641,30.3115234 Z M43.4504531,32.7373047 C43.3508432,34.1142647 42.8425475,35.1982382 41.9255508,35.9892578 C41.008554,36.7802774 39.80007,37.1757812 38.3000625,37.1757812 C36.6594293,37.1757812 35.3689148,36.6235407 34.4284804,35.519043 C33.4880461,34.4145453 33.0178359,32.8984471 33.0178359,30.9707031 L33.0178359,30.1884766 C33.0178359,28.9580017 33.2346306,27.8740281 33.6682265,26.9365234 C34.1018225,25.9990187 34.7214452,25.2797877 35.5271133,24.7788086 C36.3327813,24.2778295 37.2688071,24.0273438 38.3352187,24.0273438 C39.8117886,24.0273438 41.0012298,24.4228476 41.9035781,25.2138672 C42.8059264,26.0048868 43.3274055,27.1152272 43.4680312,28.5449219 L40.8313125,28.5449219 C40.766859,27.7187459 40.5368809,27.1196308 40.1413711,26.7475586 C39.7458613,26.3754864 39.1438165,26.1894531 38.3352187,26.1894531 C37.4563081,26.1894531 36.7985998,26.5043914 36.3620742,27.1342773 C35.9255486,27.7641633 35.7014297,28.7412043 35.6897109,30.0654297 L35.6897109,31.0322266 C35.6897109,32.415046 35.8991815,33.4257781 36.3181289,34.0644531 C36.7370763,34.7031282 37.3977142,35.0224609 38.3000625,35.0224609 C39.1145197,35.0224609 39.7224238,34.8364276 40.1237929,34.4643555 C40.5251621,34.0922833 40.7551403,33.5166055 40.8137344,32.7373047 L43.4504531,32.7373047 Z"/>
    <polygon fill="#7BB6F6" points="35 63.901 37.601 63.901 37.601 87.307 46.053 87.307 52.554 75.739 52.554 87.307 60.356 87.307 72.059 63.901 74.66 63.901 74.66 60 62.957 60 62.957 63.901 64.908 63.901 60.356 72.868 60.356 60 51.254 60 43.452 74.683 43.452 63.901 46.053 63.901 46.053 60 35 60"/>
  </g>
</svg>
