<svg xmlns="http://www.w3.org/2000/svg" xmlns:xlink="http://www.w3.org/1999/xlink" width="98" height="111" viewBox="0 0 98 111">
  <defs>
    <polygon id="zip-b" points="95.769 106.363 14 106.363 14 0 70.216 0 95.769 25.324"/>
    <filter id="zip-a" width="107.3%" height="105.6%" x="-3.7%" y="-2.8%" filterUnits="objectBoundingBox">
      <feOffset in="SourceAlpha" result="shadowOffsetOuter1"/>
      <feGaussianBlur in="shadowOffsetOuter1" result="shadowBlurOuter1" stdDeviation="1"/>
      <feColorMatrix in="shadowBlurOuter1" values="0 0 0 0 0   0 0 0 0 0   0 0 0 0 0  0 0 0 0.5 0"/>
    </filter>
  </defs>
  <g fill="none" fill-rule="evenodd" transform="translate(0 2)">
    <g fill-rule="nonzero">
      <use fill="#000" filter="url(#zip-a)" xlink:href="#zip-b"/>
      <use fill="#FFF" xlink:href="#zip-b"/>
    </g>
    <polygon fill="#585858" fill-rule="nonzero" points="92.275 28.058 68 28.058 68 4"/>
    <rect width="55" height="28" y="16" fill="#585858" rx="4"/>
    <path fill="#FFF" d="M17.71875,33.9995117 L23.8115234,33.9995117 L23.8115234,36 L14.605957,36 L14.605957,34.5390625 L20.5825195,25.9311523 L14.6142578,25.9311523 L14.6142578,23.9140625 L23.6787109,23.9140625 L23.6787109,25.3417969 L17.71875,33.9995117 Z M27.5963203,36 L25.1060859,36 L25.1060859,23.9140625 L27.5963203,23.9140625 L27.5963203,36 Z M31.9621719,31.7416992 L31.9621719,36 L29.4719375,36 L29.4719375,23.9140625 L34.1867812,23.9140625 C35.0943378,23.9140625 35.8925883,24.0800765 36.5815566,24.4121094 C37.2705249,24.7441423 37.8003861,25.2158986 38.1711562,25.8273926 C38.5419263,26.4388865 38.7273086,27.1347617 38.7273086,27.9150391 C38.7273086,29.0992898 38.3219578,30.0331183 37.5112441,30.7165527 C36.7005304,31.3999871 35.5785527,31.7416992 34.1452773,31.7416992 L31.9621719,31.7416992 Z M31.9621719,29.7246094 L34.1867812,29.7246094 C34.8453132,29.7246094 35.3475054,29.569663 35.693373,29.2597656 C36.0392406,28.9498682 36.2121719,28.5071643 36.2121719,27.9316406 C36.2121719,27.3395153 36.0378572,26.8608417 35.6892226,26.4956055 C35.3405881,26.1303693 34.8591476,25.9422201 34.2448867,25.9311523 L31.9621719,25.9311523 L31.9621719,29.7246094 Z"/>
    <polygon fill="#585858" fill-rule="nonzero" points="52 71 59 71 59 74 52 74"/>
    <polygon fill="#585858" fill-rule="nonzero" points="52 59 59 59 59 62 52 62"/>
    <polygon fill="#585858" fill-rule="nonzero" points="52 49 59 49 59 52 52 52"/>
    <path fill="#585858" fill-rule="nonzero" d="M58.5,80 L51.5,80 C51.5,84.75 48,89.5 48,92.6666667 C48,96.1673185 51.1308602,99 55,99 C58.8691415,99 62,96.1673185 62,92.6666667 C62,89.5 58.5,84.75 58.5,80 Z M55,95.8333333 C53.0654292,95.8333333 51.5,94.4169926 51.5,92.6666667 C51.5,90.9163407 53.0654292,89.5 55,89.5 C56.9345707,89.5 58.5,90.9163407 58.5,92.6666667 C58.5,94.4169926 56.9345707,95.8333333 55,95.8333333 Z"/>
  </g>
</svg>
